<?xml version="1.0"?>
<svg version="1.1" xmlns="http://www.w3.org/2000/svg" width="400" height="36" style=""><path fill="#0cadc5" d="M15.7744140625,26.0107421875q0-0.9140625,0.23486328125-1.83447265625t0.72998046875-1.650390625t1.26318359375-1.18701171875t1.80908203125-0.45703125q0.4443359375,0,0.9775390625,0.10791015625t0.98388671875,0.3427734375t0.76171875,0.609375t0.31103515625,0.92041015625q0,0.3427734375-0.177734375,0.45703125t-0.4697265625,0.1142578125l-0.0888671875-0.126953125t-0.24755859375-0.32373046875t-0.33642578125-0.4189453125t-0.3427734375-0.37451171875q-0.5205078125-0.5205078125-0.9775390625-0.55859375l-0.1015625,0q-0.380859375,0-0.7109375,0.228515625q-0.3681640625,0.279296875-0.65380859375,0.787109375t-0.47607421875,1.0791015625t-0.29833984375,1.1552734375t-0.10791015625,0.96484375q0,0.5205078125,0.12060546875,1.18701171875t0.40625,1.26318359375t0.7236328125,1.0029296875t1.12353515625,0.40625q0.6220703125,0,1.1298828125-0.3046875t0.97119140625-0.67919921875t0.90771484375-0.6728515625t0.9140625-0.29833984375q0.203125,0,0.41259765625,0.05078125t0.20947265625,0.2666015625l0,0.076171875q-0.228515625,0.5966796875-0.7744140625,1.0537109375t-1.22509765625,0.79345703125t-1.4091796875,0.50146484375t-1.30126953125,0.1650390625q-1.06640625,0-1.87255859375-0.34912109375t-1.33935546875-0.95849609375t-0.80615234375-1.46630859375t-0.27294921875-1.87255859375z M26.853232421875,30.771484375q0-0.3681640625,0.03173828125-0.7744140625t0.05712890625-0.76171875l0.076171875-1.904296875q0.126953125-2.28515625,0.31103515625-4.494140625t0.31103515625-4.46875q0.076171875-1.244140625,0.1142578125-2.44384765625t0.1142578125-2.44384765625q-0.05078125-0.1015625-0.05078125-0.1396484375q0-0.177734375,0.13330078125-0.279296875t0.31103515625-0.17138671875t0.37451171875-0.09521484375t0.29833984375-0.025390625l0.2919921875,0q0.3935546875,0.05078125,0.5712890625,0.24755859375t0.228515625,0.4697265625t0.025390625,0.583984375t-0.025390625,0.57763671875q0,1.8408203125-0.0888671875,3.75146484375t-0.203125,3.833984375t-0.20947265625,3.8466796875t-0.09521484375,3.80224609375l0,0.888671875q0,0.5966796875-0.33642578125,0.787109375t-0.93310546875,0.1904296875q-0.5205078125,0-0.9140625-0.228515625t-0.3935546875-0.7490234375z M32.67619140625,26.2646484375q0-0.86328125,0.23486328125-1.6630859375t0.70458984375-1.42822265625t1.17431640625-1.0029296875t1.63134765625-0.37451171875q0.5712890625,0,1.26318359375,0.17138671875t1.30126953125,0.5078125t1.015625,0.85693359375t0.40625,1.193359375q0,0.3173828125-0.10791015625,0.482421875t-0.43798828125,0.1650390625l-0.1396484375-0.025390625q0.3681640625,0.990234375,0.634765625,2.03125t0.5205078125,2.08203125q0.1015625,0.203125,0.15234375,0.36181640625t0.05078125,0.31103515625q0,0.203125-0.1142578125,0.33642578125t-0.29833984375,0.19677734375t-0.380859375,0.0888671875t-0.34912109375,0.025390625q-0.5458984375,0-0.81884765625-0.1904296875t-0.3935546875-0.5205078125t-0.14599609375-0.74267578125t-0.1015625-0.83154296875q-0.15234375,0.4951171875-0.39990234375,0.96484375t-0.583984375,0.84423828125t-0.79345703125,0.5966796875t-1.0283203125,0.22216796875q-0.837890625,0-1.4091796875-0.482421875t-0.92041015625-1.18701171875t-0.5078125-1.50439453125t-0.15869140625-1.4853515625z M34.47892578125,26.0869140625q0,0.4697265625,0.0634765625,0.990234375t0.20947265625,1.0283203125t0.37451171875,0.95849609375t0.5712890625,0.79345703125q0.6220703125-0.6728515625,0.92041015625-1.6376953125t0.533203125-1.85986328125t0.533203125-1.5361328125t0.92041015625-0.64111328125q0.3935546875,0,0.66015625,0.1396484375q-0.126953125-0.3173828125-0.4189453125-0.61572265625t-0.65380859375-0.5458984375t-0.7490234375-0.40625t-0.72998046875-0.15869140625q-0.1015625,0-0.23486328125,0.03173828125t-0.20947265625,0.00634765625q-0.5205078125,0.15234375-0.85693359375,0.52685546875t-0.5458984375,0.88232421875t-0.29833984375,1.041015625t-0.0888671875,1.0029296875z M43.678837890625,22.9892578125q0-0.5205078125,0.3046875-0.89501953125t0.74267578125-0.609375t0.95849609375-0.34912109375t0.96484375-0.1142578125q0.3427734375,0,0.9140625,0.1015625t1.1171875,0.3046875t0.94580078125,0.533203125t0.39990234375,0.7744140625q0,0.203125-0.15234375,0.36181640625t-0.3173828125,0.15869140625q-0.3427734375,0-0.6220703125-0.22216796875t-0.57763671875-0.4697265625t-0.65380859375-0.4697265625t-0.7998046875-0.22216796875t-0.80615234375,0.28564453125t-0.36181640625,0.75537109375q0,0.7744140625,0.5458984375,1.51708984375t1.19970703125,1.5615234375t1.19970703125,1.72021484375t0.5458984375,1.9931640625q0,0.4697265625-0.19677734375,0.79345703125t-0.5205078125,0.52685546875t-0.72998046875,0.31103515625t-0.787109375,0.10791015625q-0.4189453125,0-0.9775390625-0.19677734375t-1.0537109375-0.5205078125t-0.83154296875-0.75537109375t-0.33642578125-0.9013671875q0-0.228515625,0.32373046875-0.2919921875t0.47607421875-0.0634765625q0.076171875,0,0.23486328125,0.05078125t0.31103515625,0.1142578125t0.27294921875,0.1396484375t0.09521484375,0.1650390625q0.126953125,0.15234375,0.38720703125,0.45068359375t0.5205078125,0.482421875t0.45703125,0.13330078125t0.19677734375-0.5712890625q0-0.990234375-0.533203125-1.82177734375t-1.16162109375-1.625t-1.16162109375-1.57421875t-0.533203125-1.66943359375z M52.62484375,22.9892578125q0-0.5205078125,0.3046875-0.89501953125t0.74267578125-0.609375t0.95849609375-0.34912109375t0.96484375-0.1142578125q0.3427734375,0,0.9140625,0.1015625t1.1171875,0.3046875t0.94580078125,0.533203125t0.39990234375,0.7744140625q0,0.203125-0.15234375,0.36181640625t-0.3173828125,0.15869140625q-0.3427734375,0-0.6220703125-0.22216796875t-0.57763671875-0.4697265625t-0.65380859375-0.4697265625t-0.7998046875-0.22216796875t-0.80615234375,0.28564453125t-0.36181640625,0.75537109375q0,0.7744140625,0.5458984375,1.51708984375t1.19970703125,1.5615234375t1.19970703125,1.72021484375t0.5458984375,1.9931640625q0,0.4697265625-0.19677734375,0.79345703125t-0.5205078125,0.52685546875t-0.72998046875,0.31103515625t-0.787109375,0.10791015625q-0.4189453125,0-0.9775390625-0.19677734375t-1.0537109375-0.5205078125t-0.83154296875-0.75537109375t-0.33642578125-0.9013671875q0-0.228515625,0.32373046875-0.2919921875t0.47607421875-0.0634765625q0.076171875,0,0.23486328125,0.05078125t0.31103515625,0.1142578125t0.27294921875,0.1396484375t0.09521484375,0.1650390625q0.126953125,0.15234375,0.38720703125,0.45068359375t0.5205078125,0.482421875t0.45703125,0.13330078125t0.19677734375-0.5712890625q0-0.990234375-0.533203125-1.82177734375t-1.16162109375-1.625t-1.16162109375-1.57421875t-0.533203125-1.66943359375z M61.570849609375,21.6689453125q0-0.5966796875,0.23486328125-0.88232421875t0.85693359375-0.28564453125q0.3681640625,0,0.69189453125,0.15234375t0.32373046875,0.6474609375q0.05078125,0.7236328125,0.05078125,1.51708984375t0.1396484375,1.50439453125q0.3173828125-0.5205078125,0.71728515625-1.041015625t0.88232421875-0.9267578125t1.0537109375-0.65380859375t1.244140625-0.24755859375q0.9140625,0,1.548828125,0.380859375t1.04736328125,0.990234375t0.5966796875,1.37744140625t0.18408203125,1.54248046875q0,1.193359375-0.36181640625,1.94873046875t-0.95849609375,1.18701171875t-1.35205078125,0.583984375t-1.51708984375,0.15234375q-0.6728515625,0-1.2568359375-0.26025390625t-0.8125-0.98388671875q0-0.203125,0.29833984375-0.25390625t0.42529296875-0.05078125q0.4189453125,0,0.6220703125,0.228515625q0.15234375,0.177734375,0.33642578125,0.36181640625t0.38720703125,0.18408203125q0.3935546875,0,0.8251953125-0.22216796875t0.79345703125-0.583984375t0.609375-0.85693359375t0.24755859375-1.015625q0-0.4443359375-0.076171875-1.1044921875t-0.26025390625-1.26953125t-0.5078125-1.0537109375t-0.81884765625-0.4443359375q-0.7490234375,0-1.35205078125,0.685546875t-1.0029296875,1.650390625t-0.6220703125,2.005859375t-0.22216796875,1.7392578125t0.0888671875,1.7646484375t0.18408203125,2.21533203125t0.18408203125,2.21533203125t0.0888671875,1.7646484375q0,0.177734375-0.14599609375,0.28564453125t-0.34912109375,0.17138671875t-0.41259765625,0.076171875t-0.31103515625,0.0126953125q-0.3427734375,0-0.71728515625-0.076171875t-0.51416015625-0.4697265625q-0.177734375-0.6220703125-0.330078125-1.77099609375t-0.27294921875-2.5390625t-0.20947265625-2.919921875t-0.15234375-2.95166015625t-0.09521484375-2.6025390625t-0.03173828125-1.87890625z M73.74146484375,26.2646484375q0-0.86328125,0.23486328125-1.6630859375t0.70458984375-1.42822265625t1.17431640625-1.0029296875t1.63134765625-0.37451171875q0.5712890625,0,1.26318359375,0.17138671875t1.30126953125,0.5078125t1.015625,0.85693359375t0.40625,1.193359375q0,0.3173828125-0.10791015625,0.482421875t-0.43798828125,0.1650390625l-0.1396484375-0.025390625q0.3681640625,0.990234375,0.634765625,2.03125t0.5205078125,2.08203125q0.1015625,0.203125,0.15234375,0.36181640625t0.05078125,0.31103515625q0,0.203125-0.1142578125,0.33642578125t-0.29833984375,0.19677734375t-0.380859375,0.0888671875t-0.34912109375,0.025390625q-0.5458984375,0-0.81884765625-0.1904296875t-0.3935546875-0.5205078125t-0.14599609375-0.74267578125t-0.1015625-0.83154296875q-0.15234375,0.4951171875-0.39990234375,0.96484375t-0.583984375,0.84423828125t-0.79345703125,0.5966796875t-1.0283203125,0.22216796875q-0.837890625,0-1.4091796875-0.482421875t-0.92041015625-1.18701171875t-0.5078125-1.50439453125t-0.15869140625-1.4853515625z M75.54419921875,26.0869140625q0,0.4697265625,0.0634765625,0.990234375t0.20947265625,1.0283203125t0.37451171875,0.95849609375t0.5712890625,0.79345703125q0.6220703125-0.6728515625,0.92041015625-1.6376953125t0.533203125-1.85986328125t0.533203125-1.5361328125t0.92041015625-0.64111328125q0.3935546875,0,0.66015625,0.1396484375q-0.126953125-0.3173828125-0.4189453125-0.61572265625t-0.65380859375-0.5458984375t-0.7490234375-0.40625t-0.72998046875-0.15869140625q-0.1015625,0-0.23486328125,0.03173828125t-0.20947265625,0.00634765625q-0.5205078125,0.15234375-0.85693359375,0.52685546875t-0.5458984375,0.88232421875t-0.29833984375,1.041015625t-0.0888671875,1.0029296875z M84.744111328125,30.771484375q0-0.3681640625,0.03173828125-0.7744140625t0.05712890625-0.76171875l0.076171875-1.904296875q0.126953125-2.28515625,0.31103515625-4.494140625t0.31103515625-4.46875q0.076171875-1.244140625,0.1142578125-2.44384765625t0.1142578125-2.44384765625q-0.05078125-0.1015625-0.05078125-0.1396484375q0-0.177734375,0.13330078125-0.279296875t0.31103515625-0.17138671875t0.37451171875-0.09521484375t0.29833984375-0.025390625l0.2919921875,0q0.3935546875,0.05078125,0.5712890625,0.24755859375t0.228515625,0.4697265625t0.025390625,0.583984375t-0.025390625,0.57763671875q0,1.8408203125-0.0888671875,3.75146484375t-0.203125,3.833984375t-0.20947265625,3.8466796875t-0.09521484375,3.80224609375l0,0.888671875q0,0.5966796875-0.33642578125,0.787109375t-0.93310546875,0.1904296875q-0.5205078125,0-0.9140625-0.228515625t-0.3935546875-0.7490234375z M90.5670703125,22.3671875q0-0.25390625,0.330078125-0.32373046875t0.5078125-0.06982421875q1.1171875,0,2.1962890625-0.1904296875t2.1708984375-0.1904296875q0.1015625,0,0.33642578125,0.0126953125t0.4443359375,0.05078125t0.37451171875,0.126953125t0.1650390625,0.2666015625q0,0.3173828125-0.15234375,0.9140625t-0.41259765625,1.33935546875t-0.5712890625,1.57421875t-0.6220703125,1.5869140625t-0.583984375,1.36474609375t-0.43798828125,0.9521484375q0.4189453125,0.076171875,1.0283203125,0.126953125t1.1552734375,0.1015625t0.9140625,0.17138671875t0.3427734375,0.29833984375q-0.05078125,0.2919921875-0.5205078125,0.45703125q-0.45703125,0.1650390625-1.142578125,0.228515625q-0.4189453125,0.0380859375-0.888671875,0.0380859375q-0.279296875,0-0.55859375-0.0126953125q-0.76171875-0.0380859375-1.42822265625-0.126953125t-1.11083984375-0.24755859375t-0.4443359375-0.33642578125q0-0.076171875,0.22216796875-0.6220703125t0.5458984375-1.32666015625t0.71728515625-1.701171875t0.75537109375-1.77099609375t0.634765625-1.5107421875t0.37451171875-0.9140625q-0.7490234375,0.05078125-1.51708984375,0.126953125t-1.51708984375,0.076171875q-0.1015625,0-0.32373046875-0.0126953125t-0.431640625-0.0634765625t-0.380859375-0.14599609375t-0.17138671875-0.24755859375z"/><path fill="#2f648a" d=""/></svg>
