<?xml version="1.0" encoding="UTF-8"?>
<svg xmlns="http://www.w3.org/2000/svg" xmlns:xlink="http://www.w3.org/1999/xlink" width="375pt" height="374.999991pt" viewBox="0 0 375 374.999991" version="1.2">
<defs>
<clipPath id="clip1">
  <path d="M 37.5 40.691406 L 304.5 40.691406 L 304.5 288.191406 L 37.5 288.191406 Z M 37.5 40.691406 "/>
</clipPath>
<clipPath id="clip2">
  <path d="M 91 40.691406 L 250 40.691406 L 250 198 L 91 198 Z M 91 40.691406 "/>
</clipPath>
<filter id="alpha" filterUnits="objectBoundingBox" x="0%" y="0%" width="100%" height="100%">
  <feColorMatrix type="matrix" in="SourceGraphic" values="0 0 0 0 1 0 0 0 0 1 0 0 0 0 1 0 0 0 1 0"/>
</filter>
<mask id="mask0">
  <g filter="url(#alpha)">
<rect x="0" y="0" width="375" height="374.999991" style="fill:rgb(0%,0%,0%);fill-opacity:0.498;stroke:none;"/>
  </g>
</mask>
<clipPath id="clip4">
  <path d="M 1 0.800781 L 158.839844 0.800781 L 158.839844 158 L 1 158 Z M 1 0.800781 "/>
</clipPath>
<clipPath id="clip3">
  <rect x="0" y="0" width="159" height="158"/>
</clipPath>
<g id="surface5" clip-path="url(#clip3)">
<g clip-path="url(#clip4)" clip-rule="nonzero">
<path style=" stroke:none;fill-rule:nonzero;fill:rgb(4.708862%,67.83905%,77.249146%);fill-opacity:1;" d="M 158.542969 79.238281 C 158.542969 80.519531 158.511719 81.800781 158.449219 83.082031 C 158.386719 84.367188 158.292969 85.644531 158.167969 86.921875 C 158.039062 88.199219 157.882812 89.472656 157.695312 90.738281 C 157.507812 92.007812 157.285156 93.273438 157.035156 94.53125 C 156.785156 95.789062 156.503906 97.039062 156.191406 98.285156 C 155.878906 99.53125 155.535156 100.765625 155.164062 101.992188 C 154.789062 103.222656 154.386719 104.4375 153.953125 105.648438 C 153.523438 106.855469 153.058594 108.050781 152.566406 109.234375 C 152.074219 110.421875 151.554688 111.59375 151.007812 112.753906 C 150.457031 113.914062 149.878906 115.058594 149.273438 116.191406 C 148.667969 117.320312 148.035156 118.4375 147.375 119.539062 C 146.714844 120.640625 146.027344 121.722656 145.3125 122.789062 C 144.597656 123.855469 143.859375 124.90625 143.09375 125.933594 C 142.328125 126.964844 141.539062 127.976562 140.722656 128.96875 C 139.90625 129.960938 139.066406 130.929688 138.203125 131.882812 C 137.34375 132.832031 136.457031 133.761719 135.546875 134.667969 C 134.640625 135.574219 133.707031 136.460938 132.757812 137.320312 C 131.804688 138.183594 130.832031 139.019531 129.839844 139.835938 C 128.84375 140.648438 127.832031 141.4375 126.800781 142.203125 C 125.769531 142.964844 124.71875 143.703125 123.648438 144.417969 C 122.582031 145.128906 121.496094 145.816406 120.394531 146.476562 C 119.292969 147.136719 118.171875 147.765625 117.039062 148.371094 C 115.90625 148.976562 114.761719 149.554688 113.597656 150.101562 C 112.4375 150.652344 111.261719 151.171875 110.074219 151.660156 C 108.886719 152.152344 107.691406 152.613281 106.480469 153.046875 C 105.269531 153.476562 104.050781 153.878906 102.820312 154.253906 C 101.589844 154.625 100.351562 154.96875 99.105469 155.277344 C 97.859375 155.589844 96.605469 155.871094 95.347656 156.121094 C 94.085938 156.371094 92.820312 156.589844 91.550781 156.78125 C 90.277344 156.96875 89.003906 157.125 87.722656 157.25 C 86.445312 157.375 85.164062 157.472656 83.882812 157.535156 C 82.597656 157.597656 81.3125 157.628906 80.027344 157.628906 C 78.742188 157.628906 77.460938 157.597656 76.175781 157.535156 C 74.890625 157.472656 73.609375 157.375 72.332031 157.25 C 71.054688 157.125 69.777344 156.96875 68.507812 156.78125 C 67.238281 156.589844 65.972656 156.371094 64.710938 156.121094 C 63.449219 155.871094 62.195312 155.589844 60.949219 155.277344 C 59.703125 154.96875 58.464844 154.625 57.238281 154.253906 C 56.007812 153.878906 54.785156 153.476562 53.578125 153.046875 C 52.367188 152.613281 51.167969 152.152344 49.980469 151.660156 C 48.792969 151.171875 47.621094 150.652344 46.457031 150.101562 C 45.296875 149.554688 44.148438 148.976562 43.015625 148.371094 C 41.882812 147.765625 40.765625 147.136719 39.664062 146.476562 C 38.5625 145.816406 37.476562 145.128906 36.40625 144.417969 C 35.339844 143.703125 34.289062 142.964844 33.257812 142.203125 C 32.222656 141.4375 31.210938 140.648438 30.21875 139.835938 C 29.226562 139.019531 28.253906 138.183594 27.300781 137.320312 C 26.347656 136.460938 25.417969 135.574219 24.507812 134.667969 C 23.601562 133.761719 22.714844 132.832031 21.851562 131.882812 C 20.988281 130.929688 20.148438 129.960938 19.335938 128.96875 C 18.519531 127.976562 17.730469 126.964844 16.964844 125.933594 C 16.199219 124.90625 15.457031 123.855469 14.746094 122.789062 C 14.03125 121.722656 13.34375 120.640625 12.683594 119.539062 C 12.023438 118.4375 11.390625 117.320312 10.785156 116.191406 C 10.175781 115.058594 9.601562 113.914062 9.050781 112.753906 C 8.5 111.59375 7.980469 110.421875 7.488281 109.234375 C 6.996094 108.050781 6.535156 106.855469 6.101562 105.648438 C 5.667969 104.4375 5.265625 103.222656 4.894531 101.992188 C 4.519531 100.765625 4.175781 99.53125 3.867188 98.285156 C 3.554688 97.039062 3.273438 95.789062 3.019531 94.53125 C 2.769531 93.273438 2.550781 92.007812 2.363281 90.738281 C 2.171875 89.472656 2.015625 88.199219 1.890625 86.921875 C 1.765625 85.644531 1.671875 84.367188 1.605469 83.082031 C 1.542969 81.800781 1.511719 80.519531 1.511719 79.238281 C 1.511719 77.953125 1.542969 76.671875 1.605469 75.390625 C 1.671875 74.109375 1.765625 72.832031 1.890625 71.554688 C 2.015625 70.277344 2.171875 69.003906 2.363281 67.734375 C 2.550781 66.464844 2.769531 65.203125 3.019531 63.945312 C 3.273438 62.6875 3.554688 61.433594 3.867188 60.191406 C 4.175781 58.945312 4.519531 57.710938 4.894531 56.480469 C 5.265625 55.253906 5.667969 54.035156 6.101562 52.828125 C 6.535156 51.621094 6.996094 50.421875 7.488281 49.238281 C 7.980469 48.054688 8.5 46.878906 9.050781 45.722656 C 9.601562 44.5625 10.175781 43.414062 10.785156 42.285156 C 11.390625 41.152344 12.023438 40.035156 12.683594 38.9375 C 13.34375 37.835938 14.03125 36.753906 14.746094 35.6875 C 15.457031 34.617188 16.199219 33.570312 16.964844 32.539062 C 17.730469 31.507812 18.519531 30.5 19.335938 29.507812 C 20.148438 28.515625 20.988281 27.542969 21.851562 26.59375 C 22.714844 25.644531 23.601562 24.714844 24.507812 23.808594 C 25.417969 22.898438 26.347656 22.015625 27.300781 21.152344 C 28.253906 20.292969 29.226562 19.453125 30.21875 18.640625 C 31.210938 17.828125 32.222656 17.039062 33.257812 16.273438 C 34.289062 15.507812 35.339844 14.769531 36.40625 14.058594 C 37.476562 13.34375 38.5625 12.660156 39.664062 12 C 40.765625 11.339844 41.882812 10.707031 43.015625 10.101562 C 44.148438 9.496094 45.296875 8.921875 46.457031 8.371094 C 47.621094 7.824219 48.792969 7.304688 49.980469 6.8125 C 51.167969 6.324219 52.367188 5.859375 53.578125 5.429688 C 54.785156 4.996094 56.007812 4.59375 57.238281 4.222656 C 58.464844 3.847656 59.703125 3.507812 60.949219 3.195312 C 62.195312 2.882812 63.449219 2.601562 64.710938 2.351562 C 65.972656 2.101562 67.238281 1.882812 68.507812 1.695312 C 69.777344 1.507812 71.054688 1.351562 72.332031 1.222656 C 73.609375 1.097656 74.890625 1.003906 76.175781 0.941406 C 77.460938 0.878906 78.742188 0.847656 80.027344 0.847656 C 81.3125 0.847656 82.597656 0.878906 83.882812 0.941406 C 85.164062 1.003906 86.445312 1.097656 87.722656 1.222656 C 89.003906 1.351562 90.277344 1.507812 91.550781 1.695312 C 92.820312 1.882812 94.085938 2.101562 95.347656 2.351562 C 96.605469 2.601562 97.859375 2.882812 99.105469 3.195312 C 100.351562 3.507812 101.589844 3.847656 102.820312 4.222656 C 104.050781 4.59375 105.269531 4.996094 106.480469 5.429688 C 107.691406 5.859375 108.886719 6.324219 110.074219 6.8125 C 111.261719 7.304688 112.4375 7.824219 113.597656 8.371094 C 114.761719 8.921875 115.90625 9.496094 117.039062 10.101562 C 118.171875 10.707031 119.292969 11.339844 120.394531 12 C 121.496094 12.660156 122.582031 13.34375 123.648438 14.058594 C 124.71875 14.769531 125.769531 15.507812 126.800781 16.273438 C 127.832031 17.039062 128.84375 17.828125 129.839844 18.640625 C 130.832031 19.453125 131.804688 20.292969 132.757812 21.152344 C 133.707031 22.015625 134.640625 22.898438 135.546875 23.808594 C 136.457031 24.714844 137.34375 25.644531 138.203125 26.59375 C 139.066406 27.542969 139.90625 28.515625 140.722656 29.507812 C 141.539062 30.5 142.328125 31.507812 143.09375 32.539062 C 143.859375 33.570312 144.597656 34.617188 145.3125 35.6875 C 146.027344 36.753906 146.714844 37.835938 147.375 38.9375 C 148.035156 40.035156 148.667969 41.152344 149.273438 42.285156 C 149.878906 43.414062 150.457031 44.5625 151.007812 45.722656 C 151.554688 46.878906 152.074219 48.054688 152.566406 49.238281 C 153.058594 50.421875 153.523438 51.621094 153.953125 52.828125 C 154.386719 54.035156 154.789062 55.253906 155.164062 56.480469 C 155.535156 57.710938 155.878906 58.945312 156.191406 60.191406 C 156.503906 61.433594 156.785156 62.6875 157.035156 63.945312 C 157.285156 65.203125 157.507812 66.464844 157.695312 67.734375 C 157.882812 69.003906 158.039062 70.277344 158.167969 71.554688 C 158.292969 72.832031 158.386719 74.109375 158.449219 75.390625 C 158.511719 76.671875 158.542969 77.953125 158.542969 79.238281 Z M 158.542969 79.238281 "/>
</g>
</g>
<clipPath id="clip5">
  <path d="M 141 125 L 304.5 125 L 304.5 288.191406 L 141 288.191406 Z M 141 125 "/>
</clipPath>
<mask id="mask1">
  <g filter="url(#alpha)">
<rect x="0" y="0" width="375" height="374.999991" style="fill:rgb(0%,0%,0%);fill-opacity:0.098;stroke:none;"/>
  </g>
</mask>
<clipPath id="clip7">
  <path d="M 0.359375 0.28125 L 163.5 0.28125 L 163.5 163.191406 L 0.359375 163.191406 Z M 0.359375 0.28125 "/>
</clipPath>
<clipPath id="clip6">
  <rect x="0" y="0" width="164" height="164"/>
</clipPath>
<g id="surface8" clip-path="url(#clip6)">
<g clip-path="url(#clip7)" clip-rule="nonzero">
<path style=" stroke:none;fill-rule:nonzero;fill:rgb(4.708862%,67.83905%,77.249146%);fill-opacity:1;" d="M 163.5 81.753906 C 163.5 83.085938 163.46875 84.414062 163.402344 85.742188 C 163.335938 87.070312 163.238281 88.398438 163.109375 89.722656 C 162.976562 91.046875 162.8125 92.363281 162.617188 93.679688 C 162.421875 94.996094 162.195312 96.308594 161.9375 97.613281 C 161.675781 98.917969 161.382812 100.214844 161.058594 101.503906 C 160.738281 102.792969 160.382812 104.074219 159.996094 105.347656 C 159.609375 106.621094 159.191406 107.882812 158.742188 109.136719 C 158.292969 110.390625 157.8125 111.628906 157.304688 112.859375 C 156.792969 114.089844 156.253906 115.304688 155.683594 116.507812 C 155.113281 117.710938 154.515625 118.898438 153.886719 120.070312 C 153.257812 121.242188 152.601562 122.398438 151.917969 123.542969 C 151.234375 124.683594 150.519531 125.804688 149.78125 126.910156 C 149.039062 128.019531 148.273438 129.105469 147.480469 130.171875 C 146.683594 131.242188 145.867188 132.289062 145.019531 133.320312 C 144.175781 134.347656 143.304688 135.355469 142.410156 136.339844 C 141.515625 137.324219 140.597656 138.289062 139.65625 139.230469 C 138.714844 140.167969 137.75 141.085938 136.761719 141.980469 C 135.773438 142.875 134.765625 143.742188 133.734375 144.585938 C 132.707031 145.429688 131.65625 146.246094 130.585938 147.039062 C 129.515625 147.832031 128.425781 148.597656 127.316406 149.335938 C 126.210938 150.078125 125.085938 150.789062 123.941406 151.472656 C 122.800781 152.15625 121.640625 152.8125 120.464844 153.4375 C 119.289062 154.066406 118.101562 154.664062 116.894531 155.230469 C 115.691406 155.800781 114.472656 156.339844 113.242188 156.847656 C 112.011719 157.359375 110.769531 157.835938 109.515625 158.285156 C 108.261719 158.734375 106.996094 159.148438 105.722656 159.535156 C 104.445312 159.921875 103.164062 160.277344 101.871094 160.601562 C 100.578125 160.921875 99.277344 161.214844 97.972656 161.472656 C 96.664062 161.734375 95.351562 161.960938 94.035156 162.15625 C 92.714844 162.351562 91.394531 162.515625 90.066406 162.644531 C 88.742188 162.773438 87.414062 162.871094 86.082031 162.9375 C 84.753906 163.003906 83.421875 163.035156 82.089844 163.035156 C 80.757812 163.035156 79.425781 163.003906 78.09375 162.9375 C 76.761719 162.871094 75.433594 162.773438 74.109375 162.644531 C 72.78125 162.515625 71.460938 162.351562 70.144531 162.15625 C 68.824219 161.960938 67.511719 161.734375 66.207031 161.472656 C 64.898438 161.214844 63.597656 160.921875 62.308594 160.601562 C 61.015625 160.277344 59.730469 159.921875 58.457031 159.535156 C 57.179688 159.148438 55.917969 158.734375 54.660156 158.285156 C 53.40625 157.835938 52.164062 157.359375 50.933594 156.847656 C 49.703125 156.339844 48.484375 155.800781 47.28125 155.230469 C 46.078125 154.664062 44.886719 154.066406 43.710938 153.4375 C 42.535156 152.8125 41.378906 152.15625 40.234375 151.472656 C 39.09375 150.789062 37.964844 150.078125 36.859375 149.335938 C 35.75 148.597656 34.660156 147.832031 33.589844 147.039062 C 32.523438 146.246094 31.472656 145.429688 30.441406 144.585938 C 29.410156 143.742188 28.402344 142.875 27.414062 141.980469 C 26.429688 141.085938 25.464844 140.167969 24.523438 139.230469 C 23.578125 138.289062 22.660156 137.324219 21.765625 136.339844 C 20.871094 135.355469 20 134.347656 19.15625 133.320312 C 18.3125 132.289062 17.492188 131.242188 16.699219 130.171875 C 15.90625 129.105469 15.136719 128.019531 14.398438 126.910156 C 13.65625 125.804688 12.945312 124.683594 12.257812 123.542969 C 11.574219 122.398438 10.917969 121.242188 10.289062 120.070312 C 9.660156 118.898438 9.0625 117.710938 8.492188 116.507812 C 7.921875 115.304688 7.382812 114.089844 6.875 112.859375 C 6.363281 111.628906 5.886719 110.390625 5.4375 109.136719 C 4.988281 107.882812 4.570312 106.621094 4.183594 105.347656 C 3.796875 104.074219 3.441406 102.792969 3.117188 101.503906 C 2.792969 100.214844 2.5 98.917969 2.242188 97.613281 C 1.980469 96.308594 1.753906 94.996094 1.558594 93.679688 C 1.363281 92.363281 1.199219 91.046875 1.070312 89.722656 C 0.9375 88.398438 0.839844 87.070312 0.773438 85.742188 C 0.710938 84.414062 0.675781 83.085938 0.675781 81.753906 C 0.675781 80.425781 0.710938 79.09375 0.773438 77.765625 C 0.839844 76.4375 0.9375 75.109375 1.070312 73.789062 C 1.199219 72.464844 1.363281 71.144531 1.558594 69.828125 C 1.753906 68.511719 1.980469 67.203125 2.242188 65.898438 C 2.5 64.59375 2.792969 63.292969 3.117188 62.003906 C 3.441406 60.714844 3.796875 59.433594 4.183594 58.160156 C 4.570312 56.886719 4.988281 55.625 5.4375 54.371094 C 5.886719 53.117188 6.363281 51.878906 6.875 50.648438 C 7.382812 49.421875 7.921875 48.203125 8.492188 47 C 9.0625 45.800781 9.660156 44.613281 10.289062 43.4375 C 10.917969 42.265625 11.574219 41.109375 12.257812 39.96875 C 12.945312 38.824219 13.65625 37.703125 14.398438 36.597656 C 15.136719 35.492188 15.90625 34.402344 16.699219 33.335938 C 17.492188 32.265625 18.3125 31.21875 19.15625 30.191406 C 20 29.160156 20.871094 28.152344 21.765625 27.167969 C 22.660156 26.183594 23.578125 25.21875 24.523438 24.277344 C 25.464844 23.339844 26.429688 22.421875 27.414062 21.527344 C 28.402344 20.636719 29.410156 19.765625 30.441406 18.921875 C 31.472656 18.078125 32.523438 17.261719 33.589844 16.46875 C 34.660156 15.675781 35.75 14.910156 36.859375 14.171875 C 37.964844 13.433594 39.09375 12.71875 40.234375 12.035156 C 41.378906 11.351562 42.535156 10.695312 43.710938 10.070312 C 44.886719 9.441406 46.078125 8.84375 47.28125 8.277344 C 48.484375 7.707031 49.703125 7.167969 50.933594 6.660156 C 52.164062 6.152344 53.40625 5.671875 54.660156 5.222656 C 55.917969 4.777344 57.179688 4.359375 58.457031 3.972656 C 59.730469 3.585938 61.015625 3.230469 62.308594 2.910156 C 63.597656 2.585938 64.898438 2.292969 66.207031 2.035156 C 67.511719 1.773438 68.824219 1.546875 70.144531 1.351562 C 71.460938 1.15625 72.78125 0.996094 74.109375 0.863281 C 75.433594 0.734375 76.761719 0.636719 78.09375 0.570312 C 79.425781 0.503906 80.757812 0.472656 82.089844 0.472656 C 83.421875 0.472656 84.753906 0.503906 86.082031 0.570312 C 87.414062 0.636719 88.742188 0.734375 90.066406 0.863281 C 91.394531 0.996094 92.714844 1.15625 94.035156 1.351562 C 95.351562 1.546875 96.664062 1.773438 97.972656 2.035156 C 99.277344 2.292969 100.578125 2.585938 101.871094 2.910156 C 103.164062 3.230469 104.445312 3.585938 105.722656 3.972656 C 106.996094 4.359375 108.261719 4.777344 109.515625 5.222656 C 110.769531 5.671875 112.011719 6.152344 113.242188 6.660156 C 114.472656 7.167969 115.691406 7.707031 116.894531 8.277344 C 118.101562 8.84375 119.289062 9.441406 120.464844 10.070312 C 121.640625 10.695312 122.800781 11.351562 123.941406 12.035156 C 125.085938 12.71875 126.210938 13.433594 127.316406 14.171875 C 128.425781 14.910156 129.515625 15.675781 130.585938 16.46875 C 131.65625 17.261719 132.707031 18.078125 133.734375 18.921875 C 134.765625 19.765625 135.773438 20.636719 136.761719 21.527344 C 137.75 22.421875 138.714844 23.339844 139.65625 24.277344 C 140.597656 25.21875 141.515625 26.183594 142.410156 27.167969 C 143.304688 28.152344 144.175781 29.160156 145.019531 30.191406 C 145.867188 31.21875 146.683594 32.265625 147.480469 33.335938 C 148.273438 34.402344 149.039062 35.492188 149.78125 36.597656 C 150.519531 37.703125 151.234375 38.824219 151.917969 39.96875 C 152.601562 41.109375 153.257812 42.265625 153.886719 43.4375 C 154.515625 44.613281 155.113281 45.800781 155.683594 47 C 156.253906 48.203125 156.792969 49.421875 157.304688 50.648438 C 157.8125 51.878906 158.292969 53.117188 158.742188 54.371094 C 159.191406 55.625 159.609375 56.886719 159.996094 58.160156 C 160.382812 59.433594 160.738281 60.714844 161.058594 62.003906 C 161.382812 63.292969 161.675781 64.59375 161.9375 65.898438 C 162.195312 67.203125 162.421875 68.511719 162.617188 69.828125 C 162.8125 71.144531 162.976562 72.464844 163.109375 73.785156 C 163.238281 75.109375 163.335938 76.4375 163.402344 77.765625 C 163.46875 79.09375 163.5 80.425781 163.5 81.753906 Z M 163.5 81.753906 "/>
</g>
</g>
<clipPath id="clip8">
  <path d="M 37.5 125 L 201 125 L 201 288 L 37.5 288 Z M 37.5 125 "/>
</clipPath>
<mask id="mask2">
  <g filter="url(#alpha)">
<rect x="0" y="0" width="375" height="374.999991" style="fill:rgb(0%,0%,0%);fill-opacity:0.298;stroke:none;"/>
  </g>
</mask>
<clipPath id="clip10">
  <path d="M 0.5 0.28125 L 163 0.28125 L 163 163 L 0.5 163 Z M 0.5 0.28125 "/>
</clipPath>
<clipPath id="clip9">
  <rect x="0" y="0" width="164" height="163"/>
</clipPath>
<g id="surface11" clip-path="url(#clip9)">
<g clip-path="url(#clip10)" clip-rule="nonzero">
<path style=" stroke:none;fill-rule:nonzero;fill:rgb(4.708862%,67.83905%,77.249146%);fill-opacity:1;" d="M 162.980469 81.585938 C 162.980469 82.910156 162.949219 84.238281 162.882812 85.5625 C 162.820312 86.890625 162.722656 88.214844 162.589844 89.535156 C 162.460938 90.855469 162.296875 92.171875 162.101562 93.484375 C 161.90625 94.796875 161.679688 96.105469 161.421875 97.40625 C 161.160156 98.710938 160.871094 100.003906 160.546875 101.292969 C 160.222656 102.582031 159.871094 103.859375 159.484375 105.128906 C 159.097656 106.398438 158.679688 107.660156 158.234375 108.910156 C 157.785156 110.160156 157.308594 111.398438 156.796875 112.625 C 156.289062 113.851562 155.75 115.0625 155.183594 116.265625 C 154.613281 117.464844 154.015625 118.648438 153.390625 119.820312 C 152.761719 120.992188 152.109375 122.144531 151.425781 123.285156 C 150.742188 124.421875 150.027344 125.542969 149.289062 126.648438 C 148.550781 127.75 147.785156 128.835938 146.996094 129.902344 C 146.203125 130.96875 145.386719 132.015625 144.542969 133.039062 C 143.699219 134.066406 142.828125 135.070312 141.9375 136.054688 C 141.042969 137.039062 140.128906 138 139.1875 138.9375 C 138.246094 139.878906 137.285156 140.792969 136.300781 141.683594 C 135.3125 142.574219 134.308594 143.441406 133.28125 144.285156 C 132.253906 145.125 131.203125 145.941406 130.136719 146.734375 C 129.070312 147.523438 127.980469 148.289062 126.875 149.027344 C 125.769531 149.761719 124.648438 150.472656 123.507812 151.15625 C 122.367188 151.839844 121.210938 152.492188 120.039062 153.117188 C 118.867188 153.742188 117.679688 154.339844 116.476562 154.90625 C 115.273438 155.476562 114.058594 156.011719 112.832031 156.519531 C 111.601562 157.03125 110.363281 157.507812 109.109375 157.953125 C 107.859375 158.402344 106.597656 158.816406 105.324219 159.203125 C 104.050781 159.589844 102.769531 159.941406 101.480469 160.265625 C 100.191406 160.585938 98.894531 160.878906 97.589844 161.136719 C 96.285156 161.394531 94.976562 161.621094 93.660156 161.816406 C 92.347656 162.011719 91.027344 162.175781 89.703125 162.304688 C 88.382812 162.433594 87.054688 162.53125 85.726562 162.597656 C 84.398438 162.664062 83.070312 162.695312 81.742188 162.695312 C 80.410156 162.695312 79.082031 162.664062 77.753906 162.597656 C 76.425781 162.53125 75.101562 162.433594 73.777344 162.304688 C 72.453125 162.175781 71.136719 162.011719 69.820312 161.816406 C 68.503906 161.621094 67.195312 161.394531 65.890625 161.136719 C 64.585938 160.878906 63.289062 160.585938 62 160.265625 C 60.710938 159.941406 59.429688 159.589844 58.15625 159.203125 C 56.886719 158.816406 55.625 158.402344 54.371094 157.953125 C 53.121094 157.507812 51.878906 157.03125 50.652344 156.519531 C 49.421875 156.011719 48.207031 155.476562 47.007812 154.90625 C 45.804688 154.339844 44.617188 153.742188 43.445312 153.117188 C 42.273438 152.492188 41.117188 151.839844 39.976562 151.15625 C 38.835938 150.472656 37.710938 149.761719 36.605469 149.027344 C 35.5 148.289062 34.414062 147.523438 33.347656 146.734375 C 32.277344 145.941406 31.230469 145.125 30.203125 144.285156 C 29.175781 143.441406 28.167969 142.574219 27.183594 141.683594 C 26.199219 140.792969 25.234375 139.878906 24.296875 138.9375 C 23.355469 138 22.4375 137.039062 21.546875 136.054688 C 20.652344 135.070312 19.785156 134.066406 18.941406 133.039062 C 18.097656 132.015625 17.28125 130.96875 16.488281 129.902344 C 15.695312 128.835938 14.929688 127.75 14.191406 126.648438 C 13.453125 125.542969 12.742188 124.421875 12.058594 123.285156 C 11.375 122.144531 10.71875 120.992188 10.09375 119.820312 C 9.464844 118.648438 8.867188 117.464844 8.300781 116.265625 C 7.730469 115.0625 7.191406 113.851562 6.683594 112.625 C 6.175781 111.398438 5.695312 110.160156 5.25 108.910156 C 4.800781 107.660156 4.382812 106.398438 4 105.128906 C 3.613281 103.859375 3.257812 102.582031 2.933594 101.292969 C 2.613281 100.003906 2.320312 98.710938 2.0625 97.40625 C 1.800781 96.105469 1.574219 94.796875 1.378906 93.484375 C 1.183594 92.171875 1.023438 90.855469 0.890625 89.535156 C 0.761719 88.214844 0.664062 86.890625 0.597656 85.5625 C 0.53125 84.238281 0.5 82.910156 0.5 81.585938 C 0.5 80.257812 0.53125 78.929688 0.597656 77.605469 C 0.664062 76.277344 0.761719 74.953125 0.890625 73.632812 C 1.023438 72.3125 1.183594 70.996094 1.378906 69.683594 C 1.574219 68.371094 1.800781 67.0625 2.0625 65.761719 C 2.320312 64.457031 2.613281 63.164062 2.933594 61.875 C 3.257812 60.585938 3.613281 59.308594 4 58.039062 C 4.382812 56.769531 4.800781 55.507812 5.25 54.257812 C 5.695312 53.007812 6.175781 51.769531 6.683594 50.542969 C 7.191406 49.316406 7.730469 48.105469 8.300781 46.90625 C 8.867188 45.703125 9.464844 44.519531 10.09375 43.347656 C 10.71875 42.175781 11.375 41.023438 12.058594 39.882812 C 12.742188 38.746094 13.453125 37.625 14.191406 36.519531 C 14.929688 35.417969 15.695312 34.332031 16.488281 33.265625 C 17.28125 32.199219 18.097656 31.152344 18.941406 30.128906 C 19.785156 29.101562 20.652344 28.097656 21.546875 27.113281 C 22.4375 26.128906 23.355469 25.167969 24.296875 24.230469 C 25.234375 23.289062 26.199219 22.375 27.183594 21.484375 C 28.167969 20.59375 29.175781 19.726562 30.203125 18.882812 C 31.230469 18.042969 32.277344 17.226562 33.347656 16.433594 C 34.414062 15.644531 35.5 14.878906 36.605469 14.140625 C 37.710938 13.40625 38.835938 12.695312 39.976562 12.011719 C 41.117188 11.328125 42.273438 10.675781 43.445312 10.050781 C 44.617188 9.425781 45.804688 8.828125 47.007812 8.261719 C 48.207031 7.691406 49.421875 7.15625 50.652344 6.648438 C 51.878906 6.136719 53.121094 5.660156 54.371094 5.214844 C 55.625 4.765625 56.886719 4.351562 58.15625 3.964844 C 59.429688 3.578125 60.710938 3.226562 62 2.902344 C 63.289062 2.582031 64.585938 2.289062 65.890625 2.03125 C 67.195312 1.773438 68.503906 1.546875 69.820312 1.351562 C 71.136719 1.15625 72.453125 0.992188 73.777344 0.863281 C 75.101562 0.734375 76.425781 0.636719 77.753906 0.570312 C 79.082031 0.503906 80.410156 0.472656 81.742188 0.472656 C 83.070312 0.472656 84.398438 0.503906 85.726562 0.570312 C 87.054688 0.636719 88.382812 0.734375 89.703125 0.863281 C 91.027344 0.992188 92.347656 1.15625 93.660156 1.351562 C 94.976562 1.546875 96.285156 1.773438 97.589844 2.03125 C 98.894531 2.289062 100.191406 2.582031 101.480469 2.902344 C 102.769531 3.226562 104.050781 3.578125 105.324219 3.964844 C 106.597656 4.351562 107.859375 4.765625 109.109375 5.214844 C 110.363281 5.660156 111.601562 6.136719 112.832031 6.648438 C 114.058594 7.15625 115.273438 7.691406 116.476562 8.261719 C 117.679688 8.828125 118.867188 9.425781 120.039062 10.050781 C 121.210938 10.675781 122.367188 11.328125 123.507812 12.011719 C 124.648438 12.695312 125.769531 13.40625 126.875 14.140625 C 127.980469 14.878906 129.070312 15.644531 130.136719 16.433594 C 131.203125 17.226562 132.253906 18.042969 133.28125 18.882812 C 134.308594 19.726562 135.3125 20.59375 136.300781 21.484375 C 137.285156 22.375 138.246094 23.289062 139.1875 24.230469 C 140.128906 25.167969 141.042969 26.128906 141.9375 27.113281 C 142.828125 28.097656 143.699219 29.101562 144.542969 30.128906 C 145.386719 31.152344 146.203125 32.199219 146.996094 33.265625 C 147.785156 34.332031 148.550781 35.417969 149.289062 36.519531 C 150.027344 37.625 150.742188 38.746094 151.425781 39.882812 C 152.109375 41.023438 152.761719 42.175781 153.390625 43.347656 C 154.015625 44.519531 154.613281 45.703125 155.183594 46.90625 C 155.75 48.105469 156.289062 49.316406 156.796875 50.542969 C 157.308594 51.769531 157.785156 53.007812 158.234375 54.257812 C 158.679688 55.507812 159.097656 56.769531 159.484375 58.039062 C 159.871094 59.308594 160.222656 60.585938 160.546875 61.875 C 160.871094 63.164062 161.160156 64.457031 161.421875 65.761719 C 161.679688 67.0625 161.90625 68.371094 162.101562 69.683594 C 162.296875 70.996094 162.460938 72.3125 162.589844 73.632812 C 162.722656 74.953125 162.820312 76.277344 162.882812 77.605469 C 162.949219 78.929688 162.980469 80.257812 162.980469 81.585938 Z M 162.980469 81.585938 "/>
</g>
</g>
</defs>
<g id="surface1">
<g clip-path="url(#clip1)" clip-rule="nonzero">
<path style=" stroke:none;fill-rule:nonzero;fill:rgb(80.778503%,97.24884%,95.289612%);fill-opacity:1;" d="M 304.5 206.753906 C 304.5 251.644531 268.050781 288.035156 223.089844 288.035156 C 203.160156 288.035156 184.878906 280.894531 170.6875 268.992188 C 156.609375 280.722656 138.496094 287.753906 118.742188 287.753906 C 73.890625 287.753906 37.5 251.417969 37.5 206.585938 C 37.5 170.703125 60.832031 140.265625 93.195312 129.554688 C 92.738281 126.152344 92.511719 122.695312 92.511719 119.238281 C 92.511719 75.933594 127.65625 40.847656 171.027344 40.847656 C 214.402344 40.847656 249.542969 75.933594 249.542969 119.238281 C 249.542969 122.75 249.316406 126.210938 248.863281 129.609375 C 281.167969 140.378906 304.5 170.816406 304.5 206.753906 Z M 304.5 206.753906 "/>
</g>
<g clip-path="url(#clip2)" clip-rule="nonzero">
<use xlink:href="#surface5" transform="matrix(1,0,0,1,91,40)" mask="url(#mask0)"/>
</g>
<g clip-path="url(#clip5)" clip-rule="nonzero">
<use xlink:href="#surface8" transform="matrix(1,0,0,1,141,125)" mask="url(#mask1)"/>
</g>
<g clip-path="url(#clip8)" clip-rule="nonzero">
<use xlink:href="#surface11" transform="matrix(1,0,0,1,37,125)" mask="url(#mask2)"/>
</g>
</g>
</svg>
