<?xml version="1.0"?>
<svg version="1.1" xmlns="http://www.w3.org/2000/svg" width="400" height="200" style="border: dashed 2px #aaa"><path fill="#0cadc5" d="M16.75732421875,118.17822265625q0-2.07421875,0.532958984375-4.162841796875t1.656494140625-3.7451171875t2.866455078125-2.693603515625t4.105224609375-1.037109375q1.00830078125,0,2.21826171875,0.244873046875t2.232666015625,0.77783203125t1.728515625,1.3828125t0.705810546875,2.088623046875q0,0.77783203125-0.4033203125,1.037109375t-1.06591796875,0.25927734375l-0.20166015625-0.2880859375t-0.561767578125-0.734619140625t-0.763427734375-0.95068359375t-0.77783203125-0.849853515625q-1.18115234375-1.18115234375-2.21826171875-1.267578125l-0.23046875,0q-0.8642578125,0-1.61328125,0.5185546875q-0.83544921875,0.6337890625-1.483642578125,1.7861328125t-1.080322265625,2.44873046875t-0.677001953125,2.62158203125t-0.244873046875,2.189453125q0,1.18115234375,0.273681640625,2.693603515625t0.921875,2.866455078125t1.64208984375,2.27587890625t2.549560546875,0.921875q1.41162109375,0,2.56396484375-0.69140625t2.203857421875-1.541259765625t2.059814453125-1.52685546875t2.07421875-0.677001953125q0.4609375,0,0.936279296875,0.115234375t0.475341796875,0.60498046875l0,0.1728515625q-0.5185546875,1.35400390625-1.75732421875,2.39111328125t-2.780029296875,1.800537109375t-3.19775390625,1.137939453125t-2.952880859375,0.37451171875q-2.419921875,0-4.249267578125-0.792236328125t-3.039306640625-2.175048828125t-1.829345703125-3.327392578125t-0.619384765625-4.249267578125z M41.897719726562,128.9814453125q0-0.83544921875,0.072021484375-1.75732421875t0.129638671875-1.728515625l0.1728515625-4.3212890625q0.2880859375-5.185546875,0.705810546875-10.1982421875t0.705810546875-10.140625q0.1728515625-2.8232421875,0.25927734375-5.545654296875t0.25927734375-5.545654296875q-0.115234375-0.23046875-0.115234375-0.31689453125q0-0.4033203125,0.302490234375-0.6337890625t0.705810546875-0.388916015625t0.849853515625-0.216064453125t0.677001953125-0.0576171875l0.66259765625,0q0.89306640625,0.115234375,1.29638671875,0.561767578125t0.5185546875,1.06591796875t0.0576171875,1.3251953125t-0.0576171875,1.310791015625q0,4.17724609375-0.20166015625,8.512939453125t-0.4609375,8.7001953125t-0.475341796875,8.72900390625t-0.216064453125,8.628173828125l0,2.0166015625q0,1.35400390625-0.763427734375,1.7861328125t-2.117431640625,0.43212890625q-1.18115234375,0-2.07421875-0.5185546875t-0.89306640625-1.69970703125z M55.111357421875,118.75439453125q0-1.958984375,0.532958984375-3.77392578125t1.598876953125-3.240966796875t2.664794921875-2.27587890625t3.701904296875-0.849853515625q1.29638671875,0,2.866455078125,0.388916015625t2.952880859375,1.15234375t2.3046875,1.944580078125t0.921875,2.7080078125q0,0.72021484375-0.244873046875,1.0947265625t-0.993896484375,0.37451171875l-0.31689453125-0.0576171875q0.83544921875,2.2470703125,1.4404296875,4.609375t1.18115234375,4.724609375q0.23046875,0.4609375,0.345703125,0.821044921875t0.115234375,0.705810546875q0,0.4609375-0.25927734375,0.763427734375t-0.677001953125,0.446533203125t-0.8642578125,0.20166015625t-0.792236328125,0.0576171875q-1.23876953125,0-1.858154296875-0.43212890625t-0.89306640625-1.18115234375t-0.331298828125-1.685302734375t-0.23046875-1.886962890625q-0.345703125,1.12353515625-0.907470703125,2.189453125t-1.3251953125,1.915771484375t-1.800537109375,1.35400390625t-2.33349609375,0.504150390625q-1.9013671875,0-3.19775390625-1.0947265625t-2.088623046875-2.693603515625t-1.15234375-3.413818359375t-0.360107421875-3.37060546875z M59.202177734375,118.35107421875q0,1.06591796875,0.14404296875,2.2470703125t0.475341796875,2.33349609375t0.849853515625,2.175048828125t1.29638671875,1.800537109375q1.41162109375-1.52685546875,2.088623046875-3.71630859375t1.2099609375-4.220458984375t1.2099609375-3.48583984375t2.088623046875-1.454833984375q0.89306640625,0,1.498046875,0.31689453125q-0.2880859375-0.72021484375-0.95068359375-1.397216796875t-1.483642578125-1.23876953125t-1.69970703125-0.921875t-1.656494140625-0.360107421875q-0.23046875,0-0.532958984375,0.072021484375t-0.475341796875,0.014404296875q-1.18115234375,0.345703125-1.944580078125,1.195556640625t-1.23876953125,2.002197265625t-0.677001953125,2.3623046875t-0.20166015625,2.27587890625z M80.078901367187,111.32177734375q0-1.18115234375,0.69140625-2.031005859375t1.685302734375-1.3828125t2.175048828125-0.792236328125t2.189453125-0.25927734375q0.77783203125,0,2.07421875,0.23046875t2.53515625,0.69140625t2.146240234375,1.2099609375t0.907470703125,1.75732421875q0,0.4609375-0.345703125,0.821044921875t-0.72021484375,0.360107421875q-0.77783203125,0-1.41162109375-0.504150390625t-1.310791015625-1.06591796875t-1.483642578125-1.06591796875t-1.81494140625-0.504150390625t-1.829345703125,0.648193359375t-0.821044921875,1.714111328125q0,1.75732421875,1.23876953125,3.442626953125t2.722412109375,3.54345703125t2.722412109375,3.903564453125t1.23876953125,4.52294921875q0,1.06591796875-0.446533203125,1.800537109375t-1.18115234375,1.195556640625t-1.656494140625,0.705810546875t-1.7861328125,0.244873046875q-0.95068359375,0-2.21826171875-0.446533203125t-2.39111328125-1.18115234375t-1.886962890625-1.714111328125t-0.763427734375-2.04541015625q0-0.5185546875,0.734619140625-0.66259765625t1.080322265625-0.14404296875q0.1728515625,0,0.532958984375,0.115234375t0.705810546875,0.25927734375t0.619384765625,0.31689453125t0.216064453125,0.37451171875q0.2880859375,0.345703125,0.878662109375,1.022705078125t1.18115234375,1.0947265625t1.037109375,0.302490234375t0.446533203125-1.29638671875q0-2.2470703125-1.2099609375-4.134033203125t-2.635986328125-3.6875t-2.635986328125-3.572265625t-1.2099609375-3.788330078125z M100.379453125,111.32177734375q0-1.18115234375,0.69140625-2.031005859375t1.685302734375-1.3828125t2.175048828125-0.792236328125t2.189453125-0.25927734375q0.77783203125,0,2.07421875,0.23046875t2.53515625,0.69140625t2.146240234375,1.2099609375t0.907470703125,1.75732421875q0,0.4609375-0.345703125,0.821044921875t-0.72021484375,0.360107421875q-0.77783203125,0-1.41162109375-0.504150390625t-1.310791015625-1.06591796875t-1.483642578125-1.06591796875t-1.81494140625-0.504150390625t-1.829345703125,0.648193359375t-0.821044921875,1.714111328125q0,1.75732421875,1.23876953125,3.442626953125t2.722412109375,3.54345703125t2.722412109375,3.903564453125t1.23876953125,4.52294921875q0,1.06591796875-0.446533203125,1.800537109375t-1.18115234375,1.195556640625t-1.656494140625,0.705810546875t-1.7861328125,0.244873046875q-0.95068359375,0-2.21826171875-0.446533203125t-2.39111328125-1.18115234375t-1.886962890625-1.714111328125t-0.763427734375-2.04541015625q0-0.5185546875,0.734619140625-0.66259765625t1.080322265625-0.14404296875q0.1728515625,0,0.532958984375,0.115234375t0.705810546875,0.25927734375t0.619384765625,0.31689453125t0.216064453125,0.37451171875q0.2880859375,0.345703125,0.878662109375,1.022705078125t1.18115234375,1.0947265625t1.037109375,0.302490234375t0.446533203125-1.29638671875q0-2.2470703125-1.2099609375-4.134033203125t-2.635986328125-3.6875t-2.635986328125-3.572265625t-1.2099609375-3.788330078125z M120.68000488281,108.32568359375q0-1.35400390625,0.532958984375-2.002197265625t1.944580078125-0.648193359375q0.83544921875,0,1.570068359375,0.345703125t0.734619140625,1.46923828125q0.115234375,1.64208984375,0.115234375,3.442626953125t0.31689453125,3.413818359375q0.72021484375-1.18115234375,1.627685546875-2.3623046875t2.002197265625-2.10302734375t2.39111328125-1.483642578125t2.8232421875-0.561767578125q2.07421875,0,3.5146484375,0.8642578125t2.376708984375,2.2470703125t1.35400390625,3.125732421875t0.417724609375,3.500244140625q0,2.7080078125-0.821044921875,4.422119140625t-2.175048828125,2.693603515625t-3.068115234375,1.3251953125t-3.442626953125,0.345703125q-1.52685546875,0-2.85205078125-0.590576171875t-1.84375-2.232666015625q0-0.4609375,0.677001953125-0.576171875t0.965087890625-0.115234375q0.95068359375,0,1.41162109375,0.5185546875q0.345703125,0.4033203125,0.763427734375,0.821044921875t0.878662109375,0.417724609375q0.89306640625,0,1.87255859375-0.504150390625t1.800537109375-1.3251953125t1.3828125-1.944580078125t0.561767578125-2.3046875q0-1.00830078125-0.1728515625-2.50634765625t-0.590576171875-2.880859375t-1.15234375-2.39111328125t-1.858154296875-1.00830078125q-1.69970703125,0-3.068115234375,1.5556640625t-2.27587890625,3.7451171875t-1.41162109375,4.5517578125t-0.504150390625,3.94677734375t0.20166015625,4.00439453125t0.417724609375,5.027099609375t0.417724609375,5.027099609375t0.20166015625,4.00439453125q0,0.4033203125-0.331298828125,0.648193359375t-0.792236328125,0.388916015625t-0.936279296875,0.1728515625t-0.705810546875,0.02880859375q-0.77783203125,0-1.627685546875-0.1728515625t-1.166748046875-1.06591796875q-0.4033203125-1.41162109375-0.7490234375-4.018798828125t-0.619384765625-5.76171875t-0.475341796875-6.6259765625t-0.345703125-6.697998046875t-0.216064453125-5.90576171875t-0.072021484375-4.263671875z M148.29793945312,118.75439453125q0-1.958984375,0.532958984375-3.77392578125t1.598876953125-3.240966796875t2.664794921875-2.27587890625t3.701904296875-0.849853515625q1.29638671875,0,2.866455078125,0.388916015625t2.952880859375,1.15234375t2.3046875,1.944580078125t0.921875,2.7080078125q0,0.72021484375-0.244873046875,1.0947265625t-0.993896484375,0.37451171875l-0.31689453125-0.0576171875q0.83544921875,2.2470703125,1.4404296875,4.609375t1.18115234375,4.724609375q0.23046875,0.4609375,0.345703125,0.821044921875t0.115234375,0.705810546875q0,0.4609375-0.25927734375,0.763427734375t-0.677001953125,0.446533203125t-0.8642578125,0.20166015625t-0.792236328125,0.0576171875q-1.23876953125,0-1.858154296875-0.43212890625t-0.89306640625-1.18115234375t-0.331298828125-1.685302734375t-0.23046875-1.886962890625q-0.345703125,1.12353515625-0.907470703125,2.189453125t-1.3251953125,1.915771484375t-1.800537109375,1.35400390625t-2.33349609375,0.504150390625q-1.9013671875,0-3.19775390625-1.0947265625t-2.088623046875-2.693603515625t-1.15234375-3.413818359375t-0.360107421875-3.37060546875z M152.38875976562,118.35107421875q0,1.06591796875,0.14404296875,2.2470703125t0.475341796875,2.33349609375t0.849853515625,2.175048828125t1.29638671875,1.800537109375q1.41162109375-1.52685546875,2.088623046875-3.71630859375t1.2099609375-4.220458984375t1.2099609375-3.48583984375t2.088623046875-1.454833984375q0.89306640625,0,1.498046875,0.31689453125q-0.2880859375-0.72021484375-0.95068359375-1.397216796875t-1.483642578125-1.23876953125t-1.69970703125-0.921875t-1.656494140625-0.360107421875q-0.23046875,0-0.532958984375,0.072021484375t-0.475341796875,0.014404296875q-1.18115234375,0.345703125-1.944580078125,1.195556640625t-1.23876953125,2.002197265625t-0.677001953125,2.3623046875t-0.20166015625,2.27587890625z M173.26548339844,128.9814453125q0-0.83544921875,0.072021484375-1.75732421875t0.129638671875-1.728515625l0.1728515625-4.3212890625q0.2880859375-5.185546875,0.705810546875-10.1982421875t0.705810546875-10.140625q0.1728515625-2.8232421875,0.25927734375-5.545654296875t0.25927734375-5.545654296875q-0.115234375-0.23046875-0.115234375-0.31689453125q0-0.4033203125,0.302490234375-0.6337890625t0.705810546875-0.388916015625t0.849853515625-0.216064453125t0.677001953125-0.0576171875l0.66259765625,0q0.89306640625,0.115234375,1.29638671875,0.561767578125t0.5185546875,1.06591796875t0.0576171875,1.3251953125t-0.0576171875,1.310791015625q0,4.17724609375-0.20166015625,8.512939453125t-0.4609375,8.7001953125t-0.475341796875,8.72900390625t-0.216064453125,8.628173828125l0,2.0166015625q0,1.35400390625-0.763427734375,1.7861328125t-2.117431640625,0.43212890625q-1.18115234375,0-2.07421875-0.5185546875t-0.89306640625-1.69970703125z M186.47912109375,109.91015625q0-0.576171875,0.7490234375-0.734619140625t1.15234375-0.158447265625q2.53515625,0,4.98388671875-0.43212890625t4.92626953125-0.43212890625q0.23046875,0,0.763427734375,0.02880859375t1.00830078125,0.115234375t0.849853515625,0.2880859375t0.37451171875,0.60498046875q0,0.72021484375-0.345703125,2.07421875t-0.936279296875,3.039306640625t-1.29638671875,3.572265625t-1.41162109375,3.60107421875t-1.3251953125,3.096923828125t-0.993896484375,2.16064453125q0.95068359375,0.1728515625,2.33349609375,0.2880859375t2.62158203125,0.23046875t2.07421875,0.388916015625t0.77783203125,0.677001953125q-0.115234375,0.66259765625-1.18115234375,1.037109375q-1.037109375,0.37451171875-2.5927734375,0.5185546875q-0.95068359375,0.08642578125-2.0166015625,0.08642578125q-0.6337890625,0-1.267578125-0.02880859375q-1.728515625-0.08642578125-3.240966796875-0.2880859375t-2.520751953125-0.561767578125t-1.00830078125-0.763427734375q0-0.1728515625,0.504150390625-1.41162109375t1.23876953125-3.010498046875t1.627685546875-3.8603515625t1.714111328125-4.018798828125t1.4404296875-3.42822265625t0.849853515625-2.07421875q-1.69970703125,0.115234375-3.442626953125,0.2880859375t-3.442626953125,0.1728515625q-0.23046875,0-0.734619140625-0.02880859375t-0.9794921875-0.14404296875t-0.8642578125-0.331298828125t-0.388916015625-0.561767578125z"/><path fill="#2f648a" d=""/></svg>
